<svg xmlns="http://www.w3.org/2000/svg" width="40" height="40" viewBox="0 0 40 40">
  <rect x="1" y="1" width="38" height="38" rx="10" fill="#071A3D"/>

  <!-- clean, high-contrast lock silhouette -->
  <path fill="#FFD447" d="M11 18.5v-3.25a9 9 0 0 1 18 0v3.25h-3.5v-3.25a5.5 5.5 0 0 0-11 0v3.25H11Z"/>
  <rect x="8" y="17" width="24" height="18" rx="4" fill="#FFC52D"/>
  <path fill="#FFE978" d="M12 18.5h16a2.5 2.5 0 0 1 2.5 2.5H9.5a2.5 2.5 0 0 1 2.5-2.5Z"/>

  <!-- simple keyhole mark -->
  <circle cx="20" cy="25" r="3.5" fill="#071A3D"/>
  <path fill="#071A3D" d="M18.25 26.5h3.5l1.25 6h-6l1.25-6Z"/>
  <circle cx="20" cy="25" r="1.35" fill="#16D3F3"/>
</svg>
